<svg viewBox="35 35 130 130" xmlns="http://www.w3.org/2000/svg"><rect width="200" height="200" fill="#ffffff"/><path d="M50 92 Q50 42 100 42 Q150 42 150 92 L156 190 L44 190 Z" fill="#ffd65c"/><path d="M40 200 Q46 146 100 142 Q154 146 160 200 Z" fill="#9aa3ae"/><path d="M68 150 Q100 170 132 150" fill="none" stroke="#7f8894" stroke-width="5"/><line x1="92" y1="160" x2="90" y2="186" stroke="#fff" stroke-width="3"/><line x1="108" y1="160" x2="110" y2="186" stroke="#fff" stroke-width="3"/><rect x="90" y="128" width="20" height="22" fill="#ffe4d4"/><circle cx="100" cy="98" r="40" fill="#ffe4d4"/><path d="M58 96 Q56 50 100 50 Q144 50 142 96 Q132 76 118 72 Q112 84 96 80 Q88 90 72 86 Q64 92 58 96 Z" fill="#ffd65c"/><path d="M72 58 Q100 46 128 58" fill="none" stroke="#e9b52c" stroke-width="4" stroke-linecap="round" opacity=".6"/><ellipse cx="82" cy="104" rx="8" ry="11" fill="#e8414f"/><circle cx="84" cy="100" r="3" fill="#fff"/><path d="M110 104 Q118 98 126 104" fill="none" stroke="#2b2f45" stroke-width="3.5" stroke-linecap="round"/><ellipse cx="72" cy="118" rx="7" ry="4" fill="#ff9fbe" opacity=".7"/><ellipse cx="128" cy="118" rx="7" ry="4" fill="#ff9fbe" opacity=".7"/><path d="M91 122 Q100 132 109 122" fill="#ff8a8a" stroke="#2b2f45" stroke-width="2.5" stroke-linejoin="round"/></svg>
